# xmcd
#
# Track frame offsets:
#	150
#	19532
#	35549
#	47571
#	62713
#	80312
#	90664
#	107167
#	120202
#	139507
#	154277
#	168783
#	183038
#	203146
#	219561
#	229856
#	243601
#	257930
#
# Disc length: 3517 seconds
#
# Revision: 0
# Processed by: cddbd v1.5.2PL0 Copyright (c) Steve Scherf et al.
# Submitted via: EasyCDDAExtractor 16.0.6.1
#
DISCID=e70dbb12
DTITLE=Συλλογικός δίσκος - Τα ωραιότερα τσιφτετέλια 1
DYEAR=2011
DGENRE=Τσιφτετέλια
TTITLE0=Αγγελόπουλος Μανώλης - Τα μαύρα μάτια σου [σιασκ. Μ. Αγγελόπουλος-Μ. Μ
TTITLE0=πιζάνη]
TTITLE1=Ζαγοραίος Σπύρος - Άναψε το τσιγάρο [Γ. Κλουβάτος-Χ. Βασιλειάδης]
TTITLE2=Μπέλλου Σωτηρία - Τέτοια κούκλα και τσαχπίνα [Χρήστος Κολοκοτρώνης]
TTITLE3=Καζαντζίδης Στέλιος - Αραπίνες [Βασίλης Τσιτσάνης]
TTITLE4=Χριστοδουλόπουλος Μάκης - Νά 'χαν οι καρδιές αμπάρες [Β. Σαλέας-Α. Σπυ
TTITLE4=ρόπουλος]
TTITLE5=Κύπριος Στράτος-Ζανέτ Λίτσα - Ο ουρανός αν γκρεμιστεί [Β. Σούκας-Σ. Τσ
TTITLE5=ιλιβερδής]
TTITLE6=Καρουσάκης Κώστας - Θα τα κάψω τα λεφτά μου [Β. Βασιλειάδης-Πυθαγόρας]
TTITLE7=Χαρακίδα Βάσω - Ήθελα νά 'σουνα μικρός [Γ. Κόρος-Λ. Τσώλης]
TTITLE8=Μαργαρίτης Γιώργος - Δεν έχω παλάτια και λεφτά [Βαγγέλης Περπινιάδης]
TTITLE9=Καρράς Βασίλης - Το κόκκινο φουστάνι [Σ. Κουγιουμτζής-Κ. Κινδύνης]
TTITLE10=Ντάλμα Ρένα - Το χαρέμι στο χαμάμ [Ανέστης Δελλιάς]
TTITLE11=Πανταζής Λευτέρης - Μαγικά χαλιά [Δήμος Μυλωνάς]
TTITLE12=Κολλητήρη Σοφία - Γκρέμιστ' τα όλα πια [Η. Σούκας-Σ. Κεφαλόπουλος]
TTITLE13=Άνευ ερμηνευτού - Τσιφτετέλι τσιγγάνικο [Γιώργος Κόρος]
TTITLE14=Χαρακίδα Βάσω - Λίγα λουλούδια [Γ. Κόρος-Λ. Τσώλης]
TTITLE15=Μαργαρίτης Γιώργος - Άκου, τι θα πω [Α. Κατινάρης-Μ. Μπιζάνη]
TTITLE16=Παπάζογλου Νίκος - Οι μάγκες δεν υπάρχουν πια [Ν. Ξυδάκης-Μ. Ρασούλης
TTITLE16=]
TTITLE17=Τσετίνης Μπάμπης - Σήκω χόρεψε κουκλί μου [τουρκ. παραδ. διασκ. Στ. Κ
TTITLE17=αζαντζίδης]
EXTD=
EXTT0=
EXTT1=
EXTT2=
EXTT3=
EXTT4=
EXTT5=
EXTT6=
EXTT7=
EXTT8=
EXTT9=
EXTT10=
EXTT11=
EXTT12=
EXTT13=
EXTT14=
EXTT15=
EXTT16=
EXTT17=
PLAYORDER=
